# AST/ASF file generated using VICON BodyLanguage
# -----------------------------------------------
:version 1.10
:name VICON
:units
  mass 1.0
  length 0.45
  angle deg
:documentation
   .ast/.asf automatically generated from VICON data using
   VICON BodyBuilder and BodyLanguage model FoxedUp or BRILLIANT.MOD
:root
   order TX TY TZ RX RY RZ
   axis XYZ
   position 0 0 0  
   orientation 0 0 0 
:bonedata
  begin
     id 1 
     name lhipjoint
     direction 0.578396 -0.714046 0.394458 
     length 2.21935 
     axis 0 0 0  XYZ
  end
  begin
     id 2 
     name lfemur
     direction 0.34202 -0.939693 0  
     length 6.39105  
     axis 0 0 20  XYZ
    dof rx ry rz
    limits (-160.0 20.0)
           (-70.0 70.0)
           (-60.0 70.0)
  end
  begin
     id 3 
     name ltibia
     direction 0.34202 -0.939693 0   
     length 6.99037   
     axis 0 0 20   XYZ
    dof rx
    limits (-10.0 170.0)
  end
  begin
     id 4 
     name lfoot
     direction 0.0582372 -0.160005 0.985397   
     length 2.06111   
     axis -90 7.62852e-016 20   XYZ
    dof rx rz
    limits (-45.0 90.0)
           (-70.0 20.0)
  end
  begin
     id 5 
     name ltoes
     direction 1.53556e-011 -4.21875e-011 1   
     length 1.04074   
     axis -90 7.62852e-016 20   XYZ
    dof rx
    limits (-90.0 20.0)
  end
  begin
     id 6 
     name rhipjoint
     direction -0.558179 -0.726269 0.40121   
     length 2.182  
     axis 0 0 0  XYZ 
  end
  begin
     id 7 
     name rfemur
     direction -0.34202 -0.939693 0   
     length 6.51172   
     axis 0 0 -20   XYZ
    dof rx ry rz
    limits (-160.0 20.0)
           (-70.0 70.0)
           (-70.0 60.0)
  end
  begin
     id 8 
     name rtibia
     direction -0.34202 -0.939693 0   
     length 7.02607   
     axis 0 0 -20   XYZ
    dof rx
    limits (-10.0 170.0)
 end
 begin
     id 9 
     name rfoot
     direction -0.0788856 -0.216737 0.973038   
     length 1.96734  
     axis -90 -7.62852e-016 -20   XYZ
    dof rx rz
    limits (-45.0 90.0)
           (-20.0 70.0)
  end
  begin
     id 10 
     name rtoes
     direction -1.53567e-011 -4.21783e-011 1   
     length 0.990825   
     axis -90 -7.62852e-016 -20   XYZ
    dof rx
    limits (-90.0 20.0)
  end
  begin
     id 11 
     name lowerback
     direction 0.00668177 0.999323 -0.0361741   
     length 1.7655   
     axis 0 0 0   XYZ
    dof rx ry rz
    limits (-20.0 45.0)
           (-30.0 30.0)
           (-30.0 30.0)
  end
  begin
     id 12 
     name upperback
     direction -0.00222086 0.99851 0.0545167   
     length 1.74912   
     axis 0 0 0   XYZ
    dof rx ry rz
    limits (-20.0 45.0)
           (-30.0 30.0)
           (-30.0 30.0)
  end
  begin
     id 13 
     name thorax
     direction -0.00733971 0.997496 0.0703443   
     length 1.75715   
     axis 0 0 0   XYZ
    dof rx ry rz
    limits (-20.0 45.0)
           (-30.0 30.0)
           (-30.0 30.0)
  end
  begin
     id 14 
     name lowerneck
     direction 0.0279797 0.994795 0.0979765   
     length 1.46939   
     axis 0 0 0   XYZ
    dof rx ry rz
    limits (-20.0 45.0)
           (-30.0 30.0)
           (-30.0 30.0)
  end
  begin
     id 15 
     name upperneck
     direction 0.00339187 0.976776 -0.214238   
     length 1.48018   
     axis 0 0 0   XYZ
    dof rx ry rz
    limits (-20.0 45.0)
           (-30.0 30.0)
           (-30.0 30.0)
  end
  begin
     id 16
     name head
     direction -0.00263506 0.996603 -0.0823096  
     length 1.4976  
     axis 0 0 0   XYZ
    dof rx ry rz
    limits (-20.0 45.0)
           (-30.0 30.0)
           (-30.0 30.0)
  end
  begin
     id 17 
     name lclavicle
     direction 0.894044 0.44508 -0.0508781  
     length 3.03024  
     axis 0 0 0   XYZ
    dof ry rz
    limits (-20.0 10.0)
           (0.0 20.0)
  end
  begin
     id 18 
     name lhumerus
     direction 1 -4.48961e-011 -2.39475e-018   
     length 4.4661   
     axis 180 -30 -90   XYZ
    dof rx ry rz
    limits (-60.0 90.0)
           (-90.0 90.0)
           (-90.0 90.0)
  end
  begin
     id 19
     name lradius
     direction 1 -4.48961e-011 9.29328e-028   
     length 3.41414   
     axis 180 -30 -90   XYZ
    dof rx
    limits (-10.0 170.0)
  end
  begin
     id 20
     name lwrist
     direction 1 -4.48985e-011 1.53461e-026   
     length 1.70707   
     axis -1.09697e-014 90 90   XYZ
    dof ry
    limits (-180.0 0.0)
 end
  begin
     id 21 
     name lhand
     direction 1 -4.48966e-011 3.06923e-026   
     length 0.328298   
     axis -1.95843e-014 90 90   XYZ
    dof rx rz
    limits (-90.0 90.0)
           (-45.0 45.0)
  end
  begin
     id 22 
     name lfingers
     direction 1 -4.48893e-011 6.13845e-026   
     length 0.264682   
     axis -3.91686e-014 90 90   XYZ
    dof rx
    limits (0.0 90.0)
  end
  begin
     id 23
     name lthumb
     direction 0.707107 -6.34876e-011 0.707107   
     length 0.380032   
     axis -90 45 2.85299e-015   XYZ
    dof rx rz
    limits (-45.0 45.0)
           (-45.0 45.0)
  end
  begin
     id 24 
     name rclavicle
     direction -0.936955 0.347862 -0.0332887   
     length 3.26927  
     axis 0 0 0   XYZ 
    dof ry rz
    limits (-10.0 20.0)
           (-20.0 0.0)
  end
  begin
     id 25 
     name rhumerus
     direction -1 -4.4896e-011 1.78637e-018  
     length 4.40431   
     axis 180 30 90   XYZ
    dof rx ry rz
    limits (-90.0 60.0)
           (-90.0 90.0)
           (-90.0 90.0)
  end
  begin
     id 26 
     name rradius
     direction -1 -4.48955e-011 9.34036e-027   
     length 3.04688   
     axis 180 30 90   XYZ
    dof rx
    limits (-10.0 170.0)
  end
  begin
     id 27 
     name rwrist
     direction -1 -4.49011e-011 1.53461e-026   
     length 1.52344   
     axis -1.09697e-014 -90 -90   XYZ
    dof ry
    limits (-180.0 0.0)
  end
  begin
     id 28
     name rhand
     direction -1 -4.48834e-011 3.06923e-026   
     length 0.500489   
     axis -1.95843e-014 -90 -90   XYZ
    dof rx rz
    limits (-90.0 90.0)
           (-45.0 45.0)
  end
  begin
     id 29
     name rfingers
     direction -1 -4.48967e-011 6.13845e-026   
     length 0.403507   
     axis -3.91686e-014 -90 -90   XYZ
    dof rx
    limits (0.0 90.0)
  end
  begin
     id 30
     name rthumb
     direction -0.707107 -6.34826e-011 0.707107   
     length 0.579358   
     axis -90 -45 -2.85299e-015   XYZ
    dof rx rz
    limits (-45.0 45.0)
           (-45.0 45.0)
  end
:hierarchy
  begin
    root lhipjoint rhipjoint lowerback
    lhipjoint lfemur
    lfemur ltibia
    ltibia lfoot
    lfoot ltoes
    rhipjoint rfemur
    rfemur rtibia
    rtibia rfoot
    rfoot rtoes
    lowerback upperback
    upperback thorax
    thorax lowerneck lclavicle rclavicle
    lowerneck upperneck
    upperneck head
    lclavicle lhumerus
    lhumerus lradius
    lradius lwrist
    lwrist lhand lthumb
    lhand lfingers
    rclavicle rhumerus
    rhumerus rradius
    rradius rwrist
    rwrist rhand rthumb
    rhand rfingers
  end

#!OML:ASF H:\IndianDance\Patient Classification 1\Patient 1\Session 1\dancer.ASF
:FULLY-SPECIFIED
:DEGREES
1123
root 4.00176 13.0241 1.1579 153.576 -86.4322 -142.376
lowerback 28.8129 3.13906 4.70411
upperback 1.78779 5.63385 2.09464
thorax -13.7618 2.19339 -2.46779
lowerneck -20.997 -4.21289 -3.03694
upperneck 21.4006 -3.94341 -4.29574
head 10.3022 -2.63985 -1.62278
rclavicle -3.57812e-015 1.27222e-014
rhumerus -22.1927 1.71007 -66.4428
rradius 89.0871
rwrist -19.4222
rhand -45.8761 57.1837
rfingers 7.12502
rthumb -18.6265 28.0554
lclavicle -3.57812e-015 1.27222e-014
lhumerus -11.9427 -41.8871 23.5664
lradius 104.713
lwrist 20.1736
lhand -31.0874 63.8133
lfingers 7.12502
lthumb -4.36758 -813.748
rfemur -75.0467 -29.5165 28.1644
rtibia 93.1809
rfoot -4.59924 -7.4543
rtoes 17.1697
lfemur -55.4031 23.5415 -28.2208
ltibia 81.726
lfoot -33.085 16.1075
ltoes 10.0581
1124
root 4.01714 13.039 1.23124 155.178 -85.6392 -144.091
lowerback 29.263 3.19831 5.23384
upperback 1.52054 5.95116 2.52553
thorax -13.4636 2.30729 -2.33321
lowerneck -20.707 -4.68338 -3.35617
upperneck 20.9768 -4.58694 -4.02649
head 10.1044 -2.91859 -1.55003
rclavicle -1.59028e-015 1.90833e-014
rhumerus -20.9297 0.344745 -66.2615
rradius 87.0473
rwrist -22.8714
rhand -45.771 55.8329
rfingers 7.12502
rthumb -18.5254 26.695
lclavicle -1.59028e-015 1.90833e-014
lhumerus -12.3341 -42.4774 23.3782
lradius 105.917
lwrist 18.4049
lhand -31.7856 63.0884
lfingers 7.12502
lthumb -5.04176 -813.008
rfemur -76.2876 -29.3316 28.4821
rtibia 93.3916
rfoot -3.25625 -7.47492
rtoes 19.1658
lfemur -55.2872 24.1208 -28.2149
ltibia 81.5972
lfoot -33.2439 16.144
ltoes 10.6484
1125
root 4.02999 13.0548 1.30233 156.302 -84.9287 -145.295
lowerback 29.6176 3.23713 5.71494
upperback 1.63224 6.21464 2.98397
thorax -13.482 2.3946 -2.20473
lowerneck -20.3792 -5.13926 -3.66813
upperneck 20.5124 -5.22138 -3.72505
head 9.89156 -3.18933 -1.46269
rclavicle 2.70347e-014 -4.77083e-015
rhumerus -19.5566 -0.951228 -66.0413
rradius 84.9486
rwrist -26.2293
rhand -45.6716 54.3194
rfingers 7.12502
rthumb -18.4298 25.1724
lclavicle 2.70347e-014 -4.77083e-015
lhumerus -12.7455 -43.0389 23.2142
lradius 107.078
lwrist 16.6631
lhand -32.5595 62.3881
lfingers 7.12502
lthumb -5.7889 -812.289
rfemur -77.5019 -29.1942 28.799
rtibia 93.3826
rfoot -2.42063 -7.81656
rtoes 20.9157
lfemur -55.1929 24.6365 -28.2568
ltibia 81.4468
lfoot -33.3667 16.1791
ltoes 11.1458
1126
root 4.04063 13.0714 1.36997 157.478 -84.3097 -146.516
lowerback 29.9239 3.26617 6.11629
upperback 1.74003 6.43631 3.42671
thorax -13.4922 2.46776 -2.03274
lowerneck -20.0512 -5.58049 -3.97922
upperneck 20.0436 -5.84174 -3.39077
head 9.68394 -3.45107 -1.36123
rclavicle -4.29375e-014 -1.74931e-014
rhumerus -18.0778 -2.1813 -65.7825
rradius 82.7839
rwrist -29.5068
rhand -45.5777 52.6867
rfingers 7.12502
rthumb -18.3395 23.5312
lclavicle -4.29375e-014 -1.74931e-014
lhumerus -13.1674 -43.5806 23.0725
lradius 108.201
lwrist 14.9316
lhand -33.4451 61.6548
lfingers 7.12502
lthumb -6.64387 -811.531
rfemur -78.6747 -29.0774 29.0649
rtibia 93.1344
rfoot -2.07192 -8.41849
rtoes 22.4156
lfemur -55.1237 25.0791 -28.3755
ltibia 81.2651
lfoot -33.445 16.2096
ltoes 11.5559
1127
root 4.04931 13.089 1.43343 158.863 -83.7948 -147.91
lowerback 30.1837 3.28905 6.41768
upperback 1.83688 6.61429 3.84999
thorax -13.5063 2.52701 -1.81087
lowerneck -19.7477 -6.0094 -4.28135
upperneck 19.605 -6.44881 -3.0369
head 9.49757 -3.7057 -1.25386
rclavicle 3.57812e-014 -2.06736e-014
rhumerus -16.5151 -3.35001 -65.4911
rradius 80.5563
rwrist -32.7265
rhand -45.4752 50.8882
rfingers 7.12502
rthumb -18.2409 21.7235
lclavicle 3.57812e-014 -2.06736e-014
lhumerus -13.5959 -44.097 22.9477
lradius 109.287
lwrist 13.1677
lhand -34.3951 60.8828
lfingers 7.12502
lthumb -7.56094 -810.728
rfemur -79.787 -28.9729 29.2397
rtibia 92.6302
rfoot -2.14723 -9.18526
rtoes 23.6617
lfemur -55.0787 25.4321 -28.5861
ltibia 81.0467
lfoot -33.4699 16.2503
ltoes 11.855
1128
root 4.05615 13.1082 1.49231 160.469 -83.3879 -149.493
lowerback 30.4036 3.30599 6.62137
upperback 1.92118 6.74946 4.25034
thorax -13.5293 2.57261 -1.54508
lowerneck -19.463 -6.4284 -4.57383
upperneck 19.1975 -7.04792 -2.65633
head 9.33149 -3.95467 -1.13915
rclavicle -4.77083e-014 -7.95139e-015
rhumerus -14.8835 -4.4682 -65.1772
rradius 78.2633
rwrist -35.8711
rhand -45.3427 48.8687
rfingers 7.12502
rthumb -18.1134 19.6921
lclavicle -4.77083e-014 -7.95139e-015
lhumerus -14.0157 -44.5881 22.83
lradius 110.335
lwrist 11.3707
lhand -35.3962 60.0705
lfingers 7.12502
lthumb -8.52713 -990.122
rfemur -80.8083 -28.8867 29.3029
rtibia 91.8497
rfoot -2.54495 -10.0003
rtoes 24.5521
lfemur -55.0439 25.6863 -28.8832
ltibia 80.7863
lfoot -33.4401 16.3087
ltoes 12.0389
1129
root 4.06139 13.1289 1.54665 162.238 -83.0648 -151.21
lowerback 30.5889 3.32171 6.74581
upperback 1.99209 6.85423 4.62837
thorax -13.5621 2.60916 -1.24949
lowerneck -19.2109 -6.84251 -4.85596
upperneck 18.8339 -7.64451 -2.25205
head 9.19231 -4.20081 -1.02019
rclavicle 6.75868e-014 4.13472e-014
rhumerus -13.1926 -5.56334 -64.855
rradius 75.9047
rwrist -38.9463
rhand -45.1818 46.712
rfingers 7.12502
rthumb -17.9585 17.5211
lclavicle 6.75868e-014 4.13472e-014
lhumerus -14.4043 -45.0502 22.7105
lradius 111.343
lwrist 9.56409
lhand -36.4447 59.188
lfingers 7.12502
lthumb -9.53886 -991.048
rfemur -81.7077 -28.7974 29.2545
rtibia 90.7738
rfoot -3.16625 -10.7583
rtoes 25.0873
lfemur -55.0172 25.8565 -29.2444
ltibia 80.4877
lfoot -33.3656 16.3771
ltoes 12.1603
1130
root 4.06498 13.1514 1.59685 164.061 -82.8089 -152.959
lowerback 30.7454 3.33349 6.81981
upperback 2.04674 6.93532 4.98369
thorax -13.6066 2.63793 -0.942434
lowerneck -18.9728 -7.24964 -5.12575
upperneck 18.5056 -8.23784 -1.82295
head 9.07341 -4.44336 -0.896176
rclavicle 6.99722e-014 1.59028e-014
rhumerus -11.4641 -6.65781 -64.5435
rradius 73.4839
rwrist -41.9247
rhand -44.9963 44.467
rfingers 7.12502
rthumb -17.78 15.2598
lclavicle 6.99722e-014 1.59028e-014
lhumerus -14.7765 -45.4955 22.5993
lradius 112.317
lwrist 7.75923
lhand -37.5443 58.2085
lfingers 7.12502
lthumb -10.5997 -992.079
rfemur -82.4483 -28.7005 29.1021
rtibia 89.3864
rfoot -3.91148 -11.3731
rtoes 25.2466
lfemur -54.9913 25.9537 -29.6436
ltibia 80.1543
lfoot -33.2527 16.4629
ltoes 12.2172
1131
root 4.06708 13.1755 1.6433 165.813 -82.589 -154.616
lowerback 30.8809 3.34443 6.87407
upperback 2.08584 7.00756 5.31917
thorax -13.6611 2.66369 -0.642651
lowerneck -18.6798 -7.6586 -5.4101
upperneck 18.1485 -8.84358 -1.33622
head 8.94367 -4.68769 -0.749724
rclavicle -1.35174e-014 -3.02153e-014
rhumerus -9.72621 -7.78162 -64.2546
rradius 71.0344
rwrist -44.7843
rhand -44.7397 42.0829
rfingers 7.12502
rthumb -17.5332 12.8535
lclavicle -1.35174e-014 -3.02153e-014
lhumerus -15.1254 -45.9204 22.5016
lradius 113.257
lwrist 6.01177
lhand -38.7026 57.1202
lfingers 7.12502
lthumb -11.7168 -993.227
rfemur -82.998 -28.574 28.869
rtibia 87.6755
rfoot -4.73253 -11.8036
rtoes 24.892
lfemur -54.9677 26.0047 -30.0481
ltibia 79.7948
lfoot -33.1107 16.5618
ltoes 12.265
1132
root 4.06762 13.2015 1.68676 167.407 -82.3853 -156.097
lowerback 30.9978 3.35327 6.93495
upperback 2.10976 7.07822 5.63572
thorax -13.7226 2.68815 -0.365602
lowerneck -18.4145 -8.06228 -5.66249
upperneck 17.837 -9.44648 -0.856412
head 8.83801 -4.93109 -0.613143
rclavicle -7.95139e-015 -4.92986e-014
rhumerus -7.99565 -8.95902 -64.0073
rradius 68.5618
rwrist -47.4604
rhand -44.3598 39.5707
rfingers 7.12502
rthumb -17.1675 10.3091
lclavicle -7.95139e-015 -4.92986e-014
lhumerus -15.4527 -46.3332 22.4236
lradius 114.159
lwrist 4.34847
lhand -39.8978 55.9397
lfingers 7.12502
lthumb -12.8692 -994.477
rfemur -83.3343 -28.416 28.5804
rtibia 85.6341
rfoot -5.61794 -12.0548
rtoes 24.003
lfemur -54.9442 26.0294 -30.4373
ltibia 79.4171
lfoot -32.9503 16.6734
ltoes 12.3199
